<svg width="47" height="55" viewBox="0 0 47 55" fill="none" xmlns="http://www.w3.org/2000/svg">
<path d="M46.8845 32.4412L42.6928 25.1812C42.595 25.0118 42.4423 24.8808 42.26 24.8099L33.4098 21.3688C33.6916 20.4172 33.8344 19.43 33.8339 18.4376C33.8339 12.7394 29.1981 8.10358 23.4999 8.10358C17.8017 8.10358 13.1659 12.7394 13.1659 18.4376C13.1654 19.43 13.3082 20.4172 13.59 21.3688L4.73986 24.8099C4.55754 24.8808 4.40486 25.0118 4.30705 25.1812L0.115344 32.4412C0.0533551 32.5485 0.015311 32.6679 0.00382243 32.7913C-0.00766619 32.9147 0.00767238 33.0391 0.0487857 33.156C0.0898991 33.2729 0.155814 33.3795 0.242009 33.4686C0.328204 33.5576 0.432638 33.6269 0.548147 33.6718L4.19179 35.0886V46.9136C4.1918 47.0868 4.24414 47.2559 4.34194 47.3988C4.43974 47.5418 4.57844 47.6518 4.73986 47.7145L23.1884 54.8879C23.3887 54.9658 23.6109 54.9658 23.8112 54.8879L42.2597 47.7145C42.4212 47.6518 42.5599 47.5418 42.6577 47.3988C42.7555 47.2559 42.8078 47.0868 42.8078 46.9136V35.0886L46.4514 33.6718C46.5669 33.6269 46.6713 33.5576 46.7575 33.4685C46.8437 33.3795 46.9095 33.2729 46.9506 33.156C46.9919 33.0391 47.0073 32.9147 46.9959 32.7913C46.9844 32.6679 46.9464 32.5485 46.8845 32.4412ZM23.5 9.82233C28.2505 9.82233 32.1152 13.6872 32.1152 18.4376C32.1152 23.188 28.2504 27.0528 23.5 27.0528C18.7496 27.0528 14.8848 23.188 14.8848 18.4376C14.8848 13.6872 18.7495 9.82233 23.5 9.82233ZM23.5 28.7716C27.5947 28.7716 31.1408 26.3777 32.8123 22.9159L39.5944 25.6042L23.5 31.8622L7.40553 25.6042L14.1876 22.9159C15.8591 26.3777 19.4052 28.7716 23.5 28.7716ZM2.1049 32.4329L5.42703 26.679L22.2548 33.2221L18.9326 38.9762L2.1049 32.4329ZM5.91075 35.7569L18.997 40.8452C19.1883 40.9196 19.3999 40.923 19.5935 40.8549C19.7871 40.7868 19.95 40.6517 20.0526 40.474L22.6406 35.9915V52.8307L5.91075 46.3257V35.7569ZM41.0893 46.3257L24.3594 52.8307V35.9915L26.9474 40.4741C27.05 40.6518 27.2129 40.787 27.4065 40.855C27.6001 40.9231 27.8117 40.9197 28.003 40.8453L41.0893 35.757V46.3257ZM28.0674 38.9762L24.7451 33.2221L41.573 26.679L44.8951 32.4329L28.0674 38.9762ZM21.3618 24.0199C21.9567 24.0199 22.5166 23.7876 22.9382 23.366L29.6375 16.6668C30.5079 15.7963 30.5079 14.3798 29.6373 13.5091C29.2157 13.0874 28.655 12.8552 28.0587 12.8552C27.4624 12.8552 26.9016 13.0874 26.4799 13.5091L21.5486 18.4405L20.2325 16.7843C20.024 16.5209 19.7586 16.3082 19.456 16.1622C19.1534 16.0163 18.8217 15.9409 18.4858 15.9418C17.9821 15.9427 17.4934 16.1134 17.0987 16.4263C16.1362 17.1917 15.9758 18.5974 16.7408 19.5598L19.5448 23.0884C19.7521 23.3767 20.0249 23.6115 20.3409 23.7735C20.6568 23.9354 21.0067 24.0199 21.3618 24.0199ZM18.1681 17.7717C18.2582 17.6995 18.3702 17.6602 18.4857 17.6605C18.643 17.6605 18.7892 17.7309 18.8868 17.8536L20.8021 20.264C20.8775 20.3587 20.972 20.4366 21.0795 20.4923C21.187 20.548 21.3051 20.5803 21.426 20.5872C21.5469 20.5941 21.6679 20.5754 21.781 20.5323C21.8942 20.4892 21.9969 20.4226 22.0826 20.337L27.6951 14.7244C27.7921 14.6273 27.9212 14.5739 28.0586 14.5739C28.196 14.5739 28.3249 14.6274 28.4219 14.7243C28.5182 14.8208 28.5723 14.9516 28.5723 15.0879C28.5723 15.2243 28.5182 15.355 28.422 15.4516L21.7228 22.1507C21.6758 22.1987 21.6195 22.2367 21.5575 22.2626C21.4954 22.2884 21.4288 22.3015 21.3616 22.3011C21.2781 22.3017 21.1957 22.2819 21.1217 22.2434C21.0476 22.2049 20.9841 22.1488 20.9367 22.0801C20.9266 22.0656 20.916 22.0514 20.9049 22.0375L18.0863 18.4904C18.002 18.3842 17.9634 18.2489 17.9787 18.1141C17.994 17.9794 18.0622 17.8563 18.1681 17.7717ZM22.6406 4.93808V0.913086C22.6406 0.685166 22.7312 0.46658 22.8923 0.305416C23.0535 0.144252 23.2721 0.0537109 23.5 0.0537109C23.7279 0.0537109 23.9465 0.144252 24.1077 0.305416C24.2688 0.46658 24.3594 0.685166 24.3594 0.913086V4.93808C24.3594 5.166 24.2688 5.38458 24.1077 5.54575C23.9465 5.70691 23.7279 5.79745 23.5 5.79745C23.2721 5.79745 23.0535 5.70691 22.8923 5.54575C22.7312 5.38458 22.6406 5.166 22.6406 4.93808ZM13.9632 3.57747C13.8492 3.38008 13.8184 3.1455 13.8774 2.92534C13.9364 2.70518 14.0804 2.51747 14.2778 2.40351C14.4752 2.28955 14.7098 2.25867 14.9299 2.31767C15.1501 2.37666 15.3378 2.5207 15.4518 2.7181L17.4642 6.20383C17.5782 6.40122 17.609 6.6358 17.55 6.85596C17.491 7.07612 17.347 7.26383 17.1496 7.37779C16.9522 7.49175 16.7176 7.52263 16.4975 7.46363C16.2773 7.40463 16.0896 7.2606 15.9756 7.0632L13.9632 3.57747ZM7.46601 9.04976C7.52242 8.952 7.59753 8.86632 7.68706 8.79761C7.77659 8.7289 7.87878 8.6785 7.9878 8.64929C8.09681 8.62008 8.21051 8.61263 8.32241 8.62738C8.4343 8.64213 8.54219 8.67877 8.63991 8.73522L12.1256 10.7477C12.3214 10.8624 12.4638 11.05 12.5219 11.2694C12.5799 11.4888 12.5487 11.7222 12.4353 11.9187C12.3218 12.1153 12.1352 12.2589 11.9162 12.3184C11.6972 12.3778 11.4635 12.3483 11.2663 12.2361L7.78054 10.2237C7.58316 10.1097 7.43914 9.922 7.38016 9.70185C7.32117 9.4817 7.35205 9.24714 7.46601 9.04976ZM4.89003 18.2113C4.89003 17.9834 4.98057 17.7648 5.14174 17.6037C5.3029 17.4425 5.52149 17.352 5.74941 17.352H9.77429C10.249 17.352 10.6337 17.7367 10.6337 18.2113C10.6337 18.6859 10.249 19.0707 9.77429 19.0707H5.74941C5.52149 19.0707 5.3029 18.9802 5.14174 18.819C4.98057 18.6578 4.89003 18.4393 4.89003 18.2113ZM29.4752 6.42995L31.4877 2.94422C31.5441 2.84647 31.6192 2.76079 31.7087 2.69207C31.7983 2.62336 31.9005 2.57296 32.0095 2.54375C32.1185 2.51454 32.2322 2.5071 32.3441 2.52184C32.456 2.53659 32.5639 2.57323 32.6616 2.62969C32.7593 2.68611 32.845 2.76123 32.9137 2.85076C32.9824 2.94028 33.0328 3.04247 33.062 3.15148C33.0913 3.26048 33.0987 3.37418 33.084 3.48607C33.0693 3.59796 33.0326 3.70585 32.9762 3.80359L30.9637 7.28933C30.9073 7.38709 30.8322 7.47278 30.7426 7.54151C30.6531 7.61023 30.5509 7.66064 30.4418 7.68985C30.3328 7.71906 30.2191 7.7265 30.1072 7.71174C29.9953 7.69699 29.8874 7.66033 29.7897 7.60386C29.5923 7.48988 29.4483 7.30217 29.3893 7.08202C29.3304 6.86187 29.3613 6.62732 29.4752 6.42995ZM34.3337 12.3133C34.2198 12.116 34.1889 11.8814 34.2479 11.6612C34.3069 11.4411 34.4509 11.2534 34.6483 11.1394L38.134 9.12699C38.3313 9.01483 38.5649 8.98525 38.7839 9.04471C39.0029 9.10417 39.1895 9.24784 39.303 9.44436C39.4164 9.64089 39.4476 9.87432 39.3896 10.0937C39.3316 10.3131 39.1891 10.5007 38.9934 10.6154L35.5076 12.6279C35.4099 12.6844 35.302 12.721 35.1901 12.7358C35.0782 12.7505 34.9645 12.7431 34.8555 12.7139C34.7465 12.6847 34.6443 12.6343 34.5547 12.5655C34.4652 12.4968 34.3901 12.4111 34.3337 12.3133ZM36.7734 17.8043H40.7983C41.273 17.8043 41.6576 18.1891 41.6576 18.6637C41.6576 19.1383 41.273 19.5231 40.7983 19.5231H36.7734C36.5455 19.5231 36.3269 19.4325 36.1657 19.2714C36.0045 19.1102 35.914 18.8916 35.914 18.6637C35.914 18.4358 36.0045 18.2172 36.1657 18.056C36.3269 17.8949 36.5455 17.8043 36.7734 17.8043Z" fill="#C33130"/>
</svg>
