<svg width="30" height="30" viewBox="0 0 30 30" fill="none" xmlns="http://www.w3.org/2000/svg">
<path d="M17.2659 3.74739C19.1901 4.0454 20.9749 4.72239 22.4274 5.70501C23.8321 6.65534 24.8648 7.84603 25.4141 9.14856C25.4588 9.25489 25.534 9.34564 25.6301 9.40943C25.7262 9.47322 25.839 9.50722 25.9543 9.50716C26.0325 9.50713 26.1098 9.49143 26.1818 9.46099C26.48 9.33507 26.6197 8.99153 26.494 8.69329C25.8563 7.1811 24.6771 5.81212 23.0841 4.73435C21.4892 3.6554 19.5394 2.9136 17.4451 2.58923C17.1258 2.53983 16.826 2.75886 16.7765 3.07884C16.7269 3.39835 16.9459 3.69771 17.2659 3.74739ZM5.87999 8.14286C5.97268 8.36534 6.20864 8.51522 6.4494 8.5038C6.68723 8.49231 6.90555 8.32409 6.97792 8.09728C7.05116 7.86771 6.96919 7.5997 6.77694 7.45345C6.57807 7.30239 6.28575 7.29689 6.08161 7.44114C5.8644 7.59442 5.7795 7.89771 5.87999 8.14286ZM8.70298 5.96089C8.79661 6.18589 9.03673 6.33741 9.28048 6.32183C9.51549 6.30653 9.7293 6.13901 9.80137 5.91489C9.87485 5.68696 9.79247 5.42142 9.60339 5.27446C9.40358 5.11954 9.10628 5.11315 8.9012 5.26169C8.68792 5.41614 8.60137 5.71714 8.70298 5.96089ZM11.7357 8.14286C11.8284 8.36534 12.0646 8.51522 12.3054 8.5038C12.5432 8.49231 12.762 8.32409 12.8343 8.09728C12.9075 7.86747 12.8252 7.59946 12.6327 7.45345C12.4338 7.30239 12.1417 7.29689 11.9373 7.44114C11.7203 7.59442 11.6352 7.89771 11.7357 8.14286Z" fill="white"/>
<path d="M30 18.5706C30 17.2804 29.171 16.1808 28.0181 15.7745V14.3083C28.2055 14.2393 28.384 14.1483 28.5498 14.0371C29.217 13.5887 29.5997 12.881 29.5997 12.0948C29.5997 11.6032 29.4477 11.1379 29.1653 10.7464C29.3098 10.4042 29.3503 10.027 29.2818 9.66182C28.7801 6.9784 27.057 4.52197 24.4302 2.74477C21.8137 0.974824 18.4647 0 15 0C11.5353 0 8.18613 0.974824 5.56986 2.74477C2.94299 4.5218 1.21992 6.9784 0.718242 9.66176C0.631799 10.1215 0.718986 10.597 0.96293 10.9962C0.780469 11.3307 0.685488 11.7034 0.685488 12.0948C0.685488 12.881 1.06816 13.5892 1.73561 14.0373C1.81529 14.0909 1.89791 14.1387 1.98188 14.1824V15.7746C0.828984 16.1808 0 17.2804 0 18.5706V18.6895C0 19.5442 0.36416 20.3151 0.944824 20.8566C0.774256 21.1845 0.685296 21.5488 0.685488 21.9184C0.685488 22.505 0.898769 23.0477 1.28402 23.4718V25.5863C1.28402 27.845 3.1217 29.683 5.38078 29.683H24.6192C26.8783 29.683 28.716 27.8451 28.716 25.5863V23.7376C29.2797 23.2883 29.5997 22.6362 29.5997 21.9182C29.5997 21.468 29.4729 21.0418 29.236 20.6733C29.7105 20.1478 30 19.452 30 18.6896V18.5706ZM28.8281 18.5706V18.6895C28.8281 19.2945 28.5265 19.8301 28.0659 20.1549C27.7643 20.367 27.4047 20.4811 27.036 20.4817H17.9501L21.6866 16.7784H27.0357C28.024 16.7784 28.8281 17.5825 28.8281 18.5706ZM8.88082 16.7784L8.97375 16.8716L9.57481 17.4724L8.31662 18.7308L6.36428 16.7784H8.88082ZM14.4131 20.6534L10.8183 17.0588C10.8183 17.0586 10.8181 17.0583 10.8179 17.0581L10.5382 16.7784H20.0194L16.1034 20.6511C16.1032 20.6513 16.103 20.6515 16.1027 20.652L16.1012 20.6534L15.2571 21.4975L14.4131 20.6534ZM1.86996 9.87691C2.31375 7.50387 3.86098 5.31557 6.22652 3.7152C8.65107 2.07504 11.7668 1.17188 15 1.17188C18.2332 1.17188 21.3489 2.07504 23.7735 3.7152C26.139 5.31557 27.686 7.50387 28.13 9.87691C28.2122 10.3171 27.8606 10.7375 27.4138 10.7375H2.58615C2.13867 10.7375 1.78781 10.3171 1.86996 9.87691ZM1.90061 11.7819C2.11935 11.8662 2.35174 11.9094 2.58615 11.9094H27.4138C27.7373 11.9094 28.0625 11.8256 28.3445 11.667C28.3996 11.8028 28.4279 11.948 28.4278 12.0946C28.4278 12.4839 28.2342 12.8373 27.8964 13.0641C27.551 13.2962 27.111 13.3518 26.716 13.2268C26.5208 13.1651 26.3365 13.0854 26.1351 13.0424C25.9172 12.9957 25.6943 12.9751 25.4716 12.9751C24.4249 12.9751 23.8632 13.3715 23.4121 13.6899C23.0162 13.9696 22.7035 14.1905 22.0287 14.1905C21.354 14.1905 21.0413 13.9696 20.6453 13.6901C20.1942 13.3713 19.6328 12.9751 18.5859 12.9751C17.5392 12.9751 16.9778 13.3715 16.5267 13.6901C16.1307 13.9696 15.818 14.1905 15.1433 14.1905C14.4686 14.1905 14.1557 13.9696 13.7597 13.6899C13.3085 13.3713 12.7471 12.9751 11.7005 12.9751C10.6538 12.9751 10.0921 13.3715 9.64096 13.6899C9.24498 13.9696 8.93209 14.1905 8.25756 14.1905C7.58262 14.1905 7.26996 13.9696 6.87381 13.6899C6.42264 13.3713 5.86119 12.9751 4.8143 12.9751C4.40027 12.9751 4.02697 13.0454 3.67289 13.1897C3.25471 13.3605 2.76533 13.3172 2.3891 13.0644C2.05125 12.8375 1.85766 12.4841 1.85766 12.0948C1.85736 11.987 1.87195 11.8822 1.90061 11.7819ZM3.27023 14.4619C3.57768 14.447 3.86602 14.3694 4.15213 14.2605C4.43754 14.1515 4.74885 14.13 5.05119 14.157C5.56846 14.203 5.85135 14.4029 6.19787 14.6473C6.64904 14.9659 7.21049 15.3623 8.25738 15.3623C9.30404 15.3623 9.86549 14.9659 10.3166 14.6473C10.7126 14.3678 11.0255 14.1469 11.7002 14.1469C12.375 14.1469 12.6876 14.3678 13.0836 14.6473C13.5347 14.9659 14.0964 15.3623 15.143 15.3623C16.1897 15.3623 16.7512 14.9659 17.2023 14.6473C17.5983 14.3678 17.9112 14.1469 18.5857 14.1469C19.2604 14.1469 19.5733 14.3678 19.9693 14.6473C20.4204 14.9659 20.9818 15.3623 22.0285 15.3623C23.0752 15.3623 23.6366 14.9659 24.0878 14.6473C24.4839 14.3678 24.7966 14.1469 25.4713 14.1469C25.7108 14.1469 25.9458 14.1868 26.169 14.2744C26.3866 14.36 26.6132 14.4216 26.846 14.4489V15.6067H3.15375V14.4651C3.19262 14.4648 3.23141 14.4637 3.27023 14.4619ZM1.17188 18.5705C1.17188 17.5825 1.97596 16.7784 2.96402 16.7784H4.70719L7.90236 19.9738C8.01223 20.0837 8.16123 20.1452 8.31662 20.1452C8.47201 20.1452 8.62107 20.0837 8.73088 19.9738L10.4036 18.3012L12.5842 20.4817H2.96402C2.65319 20.4814 2.3478 20.4002 2.07779 20.2462C1.53715 19.9374 1.17188 19.3556 1.17188 18.6896V18.5705ZM1.95422 21.4762C2.278 21.5934 2.61969 21.6534 2.96402 21.6536H13.7561L14.8427 22.7404C15.0675 22.9654 15.444 22.9658 15.6695 22.7421L16.7679 21.6536H27.0357C27.3662 21.6536 27.6963 21.5975 28.0085 21.4895C28.074 21.4668 28.1408 21.444 28.2023 21.4123C28.2223 21.4021 28.2511 21.3792 28.2747 21.3807C28.3072 21.3831 28.3157 21.4245 28.3273 21.4506C28.3907 21.5904 28.4246 21.7436 28.4273 21.8971C28.4372 22.4499 28.0392 22.9125 27.5194 23.0631C27.2216 23.1496 26.8991 23.1304 26.6121 23.0132C26.2587 22.8687 25.8854 22.7985 25.4713 22.7985C24.4247 22.7985 23.8632 23.1949 23.4121 23.5135C23.0159 23.7932 22.7033 24.0141 22.0285 24.0141C21.354 24.0141 21.0411 23.7932 20.6451 23.5135C20.194 23.1949 19.6326 22.7985 18.5859 22.7985C17.5392 22.7985 16.9778 23.1949 16.5264 23.5135C16.1304 23.7932 15.8178 24.0141 15.143 24.0141C14.4683 24.0141 14.1557 23.7932 13.7595 23.5135C13.3083 23.1949 12.7469 22.7985 11.7002 22.7985C10.6535 22.7985 10.0921 23.1949 9.64072 23.5135C9.24475 23.7932 8.93209 24.0141 8.25732 24.0141C7.58238 24.0141 7.26973 23.7929 6.87375 23.5135C6.4224 23.1949 5.86096 22.7985 4.81406 22.7985C4.40004 22.7985 4.02674 22.8687 3.67289 23.0134C3.29039 23.1695 2.84455 23.1489 2.48361 22.9456C2.16428 22.766 1.9265 22.4579 1.87066 22.0919C1.85403 21.9833 1.85294 21.873 1.86744 21.7641C1.87154 21.7325 1.92539 21.4657 1.95422 21.4762ZM27.5441 25.5863C27.5441 27.1989 26.2319 28.5111 24.6192 28.5111H5.38078C3.76811 28.5111 2.4559 27.1989 2.4559 25.5863V24.1965C2.93701 24.3329 3.45633 24.3233 3.95121 24.1587C4.00673 24.1404 4.06162 24.1203 4.1158 24.0983C4.32633 24.0122 4.55473 23.9706 4.81406 23.9706C5.48906 23.9706 5.80172 24.1912 6.19764 24.4709C6.64904 24.7895 7.21049 25.1859 8.25738 25.1859C9.30404 25.1859 9.86549 24.7895 10.3166 24.4709C10.7126 24.1912 11.0255 23.9705 11.7 23.9705C12.3747 23.9705 12.6876 24.1912 13.0836 24.4709C13.5347 24.7895 14.0961 25.1859 15.143 25.1859C16.1897 25.1859 16.7512 24.7895 17.2023 24.4709C17.5983 24.1912 17.9112 23.9705 18.5857 23.9705C19.2604 23.9705 19.5733 24.1912 19.969 24.4709C20.4202 24.7895 20.9818 25.1859 22.0285 25.1859C23.0752 25.1859 23.6366 24.7895 24.0878 24.4709C24.4837 24.1912 24.7966 23.9705 25.4713 23.9705C25.646 23.9705 25.8211 23.99 25.9898 24.0369C26.1502 24.0816 26.3017 24.1521 26.4622 24.1974C26.8105 24.2956 27.1866 24.3164 27.5439 24.2583V25.5863H27.5441Z" fill="white"/>
<path d="M13.2369 5.96106C13.3296 6.18354 13.5658 6.3346 13.8069 6.32223C14.0446 6.3101 14.2628 6.14258 14.3354 5.916C14.409 5.6862 14.3264 5.41866 14.1344 5.27194C13.936 5.12018 13.6432 5.11444 13.4393 5.25934C13.223 5.41268 13.1346 5.71596 13.2369 5.96106ZM15.8801 8.54381C15.9728 8.76647 16.2087 8.91618 16.4495 8.90475C16.6876 8.89327 16.9052 8.72487 16.9783 8.49846C17.0521 8.26889 16.9693 8.00065 16.777 7.8544C16.5782 7.70311 16.2859 7.69807 16.0817 7.84204C15.8647 7.99538 15.7796 8.29866 15.8801 8.54376V8.54381ZM14.3841 3.28268C14.5926 3.42167 14.8858 3.4079 15.0796 3.24905C15.2692 3.09389 15.345 2.81897 15.2575 2.58963C15.1723 2.36698 14.9467 2.20837 14.7075 2.20948C14.4708 2.21083 14.2458 2.36628 14.1621 2.58782C14.0685 2.8359 14.1641 3.13485 14.3841 3.28274L14.3841 3.28268Z" fill="white"/>
</svg>
