<svg width="48" height="46" viewBox="0 0 48 46" fill="none" xmlns="http://www.w3.org/2000/svg">
<path d="M46.1971 23.9776C46.432 23.5834 46.5492 23.1303 46.5349 22.6717C46.5206 22.2131 46.3754 21.7681 46.1164 21.3894C47.4428 20.7325 48.1744 19.3016 47.9512 17.8615C46.414 7.94406 37.8369 0.464972 27.6226 0.464972C20.3959 0.47978 20.167 0.429266 18.933 0.514924C18.7471 0.527824 18.5739 0.614071 18.4515 0.754691C18.3291 0.895312 18.2676 1.07879 18.2805 1.26475C18.2868 1.35686 18.3112 1.44681 18.3524 1.52947C18.3935 1.61212 18.4505 1.68586 18.5201 1.74647C18.5898 1.80708 18.6707 1.85336 18.7582 1.88267C18.8458 1.91199 18.9382 1.92376 19.0303 1.91731C20.1866 1.83708 20.375 1.88469 27.6226 1.87073C37.1739 1.87073 45.136 8.87645 46.562 18.0768C46.7458 19.2626 45.8228 20.3344 44.621 20.3344H3.37901C2.1739 20.3344 1.25463 19.2597 1.43804 18.0768C2.63733 10.3397 8.47122 4.09894 16.0755 2.35525C16.1661 2.3352 16.2518 2.29743 16.3277 2.24411C16.4036 2.19079 16.4682 2.12297 16.5177 2.04457C16.5673 1.96617 16.6008 1.87874 16.6165 1.78731C16.6321 1.69588 16.6294 1.60226 16.6087 1.51186C16.588 1.42145 16.5495 1.33605 16.4956 1.26056C16.4417 1.18507 16.3734 1.121 16.2947 1.07203C16.2159 1.02307 16.1282 0.990174 16.0367 0.975255C15.9451 0.960335 15.8515 0.963682 15.7613 0.985102C7.58484 2.85982 1.33439 9.56696 0.0487755 17.8615C-0.174552 19.3023 0.557847 20.7329 1.88357 21.3894C1.62464 21.7681 1.47947 22.2131 1.46517 22.6717C1.45087 23.1303 1.56805 23.5834 1.80288 23.9776C-0.502374 24.9219 -0.645199 28.1842 1.66568 29.3154C1.72715 29.3455 1.78676 29.3797 1.84589 29.4155C1.27113 30.4884 1.33973 31.8223 2.08975 32.8425C-0.362924 33.5665 -0.765532 36.8765 1.46418 38.1727V39.5929C1.46418 42.8703 4.13053 45.5366 7.40791 45.5366H40.5921C43.8695 45.5366 46.5358 42.8703 46.5358 39.5929V38.1725C48.7644 36.877 48.3641 33.5669 45.9102 32.8425C46.6665 31.8139 46.7237 30.4727 46.1555 29.4143C46.2135 29.3786 46.2731 29.3456 46.334 29.3153C48.6443 28.1851 48.5034 24.9224 46.1971 23.9776ZM44.1234 21.7402C44.6785 21.7402 45.1301 22.1918 45.1301 22.7469C45.1301 23.3019 44.6785 23.7535 44.1234 23.7535H36.4225C36.2361 23.7535 36.0573 23.8275 35.9255 23.9593C35.7937 24.0912 35.7196 24.2699 35.7196 24.4564C35.7196 24.6428 35.7937 24.8215 35.9255 24.9534C36.0573 25.0852 36.2361 25.1592 36.4225 25.1592C44.4962 25.1515 44.6338 25.1535 45.0521 25.1592C46.6993 25.1592 47.1814 27.3358 45.7162 28.0527L44.4544 28.8641C44.1792 29.0164 43.875 29.111 43.4064 29.111C41.8517 29.111 41.6657 27.7115 39.5248 27.7115C37.3946 27.7115 37.1898 29.111 35.6432 29.111C34.0881 29.111 33.9034 27.7115 31.7617 27.7115C29.6317 27.7115 29.4267 29.111 27.8802 29.111C26.3253 29.111 26.1408 27.7115 23.9992 27.7115C21.8691 27.7115 21.6641 29.111 20.1178 29.111C18.5628 29.111 18.378 27.7115 16.2363 27.7115C14.1062 27.7115 13.9012 29.111 12.3549 29.111C11.262 29.111 11.0139 28.5657 10.1474 28.1052V26.3307C10.1474 25.6847 10.6729 25.1592 11.3189 25.1592H33.3591C33.5455 25.1592 33.7243 25.0852 33.8561 24.9534C33.9879 24.8215 34.062 24.6428 34.062 24.4564C34.062 24.2699 33.9879 24.0912 33.8561 23.9593C33.7243 23.8275 33.5455 23.7535 33.3591 23.7535H11.319C9.89788 23.7535 8.74178 24.9096 8.74178 26.3307V29.8714C8.74178 30.2864 8.40412 30.6241 7.98914 30.6241C7.57407 30.6241 7.2365 30.2864 7.2365 29.8714V26.3307C7.2365 24.9096 6.0804 23.7535 4.65928 23.7535H3.87655C3.32147 23.7535 2.86994 23.3019 2.86994 22.7468C2.86994 22.1917 3.32147 21.7402 3.87655 21.7402H44.1234ZM43.311 32.7557H30.2079L33.4814 29.8196C33.9663 30.1585 34.5885 30.5167 35.6432 30.5167C37.7734 30.5167 37.9782 29.1172 39.5248 29.1172C41.0795 29.1172 41.2655 30.5167 43.4064 30.5167C44.0743 30.5167 44.5687 30.3729 44.9647 30.1815C45.5155 31.386 44.6307 32.7557 43.311 32.7557ZM15.8666 29.1403C17.7399 28.888 17.8278 30.5167 20.1179 30.5167C22.248 30.5167 22.453 29.1172 23.9993 29.1172C25.5542 29.1172 25.7388 30.5167 27.8803 30.5167C30.2193 30.5167 30.2078 28.8799 32.1332 29.1405L24 36.4355L15.8666 29.1403ZM4.68889 32.7557C3.37189 32.7557 2.48392 31.3896 3.03544 30.1819C3.92697 30.6125 5.06161 30.6037 5.87357 30.3001C6.073 31.2855 6.94569 32.0298 7.98905 32.0298C9.17916 32.0298 10.1474 31.0615 10.1474 29.8714V29.7873C10.639 30.1353 11.2665 30.5166 12.3549 30.5166C13.4104 30.5166 14.0327 30.1579 14.5178 29.8188L17.792 32.7557H4.68889ZM1.41433 26.5894C1.41433 25.8007 2.1023 25.1591 2.94791 25.1591C3.06347 25.1591 4.00429 25.1443 4.65928 25.1591C5.30527 25.1591 5.83074 25.6846 5.83074 26.3306V28.7477C5.4987 28.9666 5.17079 29.1108 4.59255 29.1108C3.44508 29.1108 3.23178 28.5169 2.28365 28.0527C1.29315 27.5679 1.42314 26.621 1.41433 26.5894ZM40.5921 44.1308H7.40791C4.90566 44.1308 2.86994 42.0951 2.86994 39.5929V39.0618C3.29223 39.2941 3.82876 39.4822 4.59255 39.4822C6.72387 39.4822 6.92658 38.0827 8.47375 38.0827C10.0287 38.0827 10.2133 39.4822 12.3549 39.4822C13.0086 39.4822 13.5547 39.3496 14.0734 39.065C14.2331 38.9733 14.3503 38.8226 14.4001 38.6454C14.4499 38.4682 14.4281 38.2785 14.3396 38.1171C14.251 37.9557 14.1027 37.8355 13.9265 37.7823C13.7502 37.7291 13.5602 37.7471 13.3971 37.8325C13.1902 37.9461 12.8847 38.0764 12.3549 38.0764C10.8 38.0764 10.6154 36.677 8.47375 36.677C6.34244 36.677 6.13973 38.0764 4.59255 38.0764C3.44508 38.0764 3.23188 37.4824 2.28365 37.0183C1.29512 36.5344 1.42267 35.585 1.41442 35.555C1.41442 34.7663 2.1024 34.1247 2.94801 34.1247C2.94801 34.1247 19.3012 34.1629 19.3566 34.159L22.5049 36.9829C21.4925 37.4465 21.2981 38.0764 20.118 38.0764C18.6909 38.0764 18.5712 37.0641 17.02 36.751C16.8377 36.7152 16.6487 36.7531 16.4943 36.8562C16.3398 36.9594 16.2325 37.1195 16.1957 37.3016C16.1589 37.4837 16.1957 37.6729 16.298 37.8279C16.4004 37.9829 16.5599 38.0912 16.7418 38.1289C17.8209 38.3468 18.1836 39.4822 20.118 39.4822C22.2481 39.4822 22.4531 38.0827 23.9994 38.0827C25.5542 38.0827 25.7389 39.4822 27.8804 39.4822C30.0118 39.4822 30.2145 38.0827 31.7619 38.0827C33.3169 38.0827 33.5016 39.4822 35.6434 39.4822C37.7735 39.4822 37.9784 38.0827 39.525 38.0827C41.0797 38.0827 41.2657 39.4822 43.4066 39.4822C44.171 39.4822 44.7078 39.2939 45.1302 39.0614C45.1 39.3426 45.3006 40.5598 44.4897 41.9156C43.6964 43.2413 42.2461 44.1308 40.5921 44.1308ZM46.5856 35.555C46.572 35.6041 46.7235 36.5253 45.7162 37.0182C44.7762 37.4781 44.5486 38.0764 43.4064 38.0764C41.8517 38.0764 41.6657 36.677 39.5248 36.677C37.3946 36.677 37.1898 38.0764 35.6432 38.0764C34.0881 38.0764 33.9034 36.677 31.7617 36.677C29.6317 36.677 29.4267 38.0764 27.8802 38.0764C26.7021 38.0764 26.504 37.4459 25.4946 36.9833L28.6482 34.1547C28.6577 34.1559 43.4166 34.1906 43.8631 34.1132C43.9798 34.1339 43.9503 34.1205 45.052 34.1247C45.8976 34.1247 46.5856 34.7664 46.5856 35.555Z" fill="#C33130"/>
<path d="M12.5865 7.94656L11.131 9.40208C10.9992 9.5339 10.9252 9.71266 10.9252 9.89906C10.9252 10.0855 10.9992 10.2642 11.131 10.396C11.2628 10.5278 11.4416 10.6019 11.628 10.6019C11.8144 10.6019 11.9932 10.5278 12.125 10.396L13.5805 8.94053C13.7123 8.80871 13.7863 8.62995 13.7863 8.44354C13.7863 8.25714 13.7123 8.07838 13.5805 7.94656C13.4487 7.81476 13.2699 7.74072 13.0835 7.74072C12.8971 7.74072 12.7183 7.81476 12.5865 7.94656ZM23.7692 10.396L25.2247 8.94053C25.3565 8.80871 25.4306 8.62995 25.4306 8.44354C25.4306 8.25714 25.3565 8.07838 25.2247 7.94656C25.0929 7.81476 24.9142 7.74072 24.7278 7.74072C24.5414 7.74072 24.3626 7.81476 24.2308 7.94656L22.7753 9.40208C22.6435 9.5339 22.5694 9.71266 22.5694 9.89906C22.5694 10.0855 22.6435 10.2642 22.7753 10.396C22.8405 10.4613 22.918 10.5131 23.0033 10.5484C23.0885 10.5838 23.1799 10.602 23.2722 10.602C23.3645 10.602 23.4559 10.5838 23.5412 10.5484C23.6265 10.5131 23.704 10.4613 23.7692 10.396ZM35.4135 10.396L36.869 8.94053C37.0008 8.80871 37.0748 8.62995 37.0748 8.44354C37.0748 8.25714 37.0008 8.07838 36.869 7.94656C36.7372 7.81476 36.5584 7.74072 36.372 7.74072C36.1856 7.74072 36.0068 7.81476 35.875 7.94656L34.4195 9.40208C34.2877 9.5339 34.2137 9.71266 34.2137 9.89906C34.2137 10.0855 34.2877 10.2642 34.4195 10.396C34.4848 10.4613 34.5622 10.5131 34.6475 10.5484C34.7328 10.5838 34.8242 10.602 34.9165 10.602C35.0088 10.602 35.1002 10.5838 35.1855 10.5484C35.2707 10.5131 35.3482 10.4613 35.4135 10.396ZM31.0469 15.9642C31.1787 15.8323 31.2528 15.6536 31.2528 15.4672C31.2528 15.2808 31.1787 15.102 31.0469 14.9702L29.5914 13.5147C29.4596 13.3829 29.2808 13.3088 29.0944 13.3088C28.908 13.3088 28.7292 13.3829 28.5974 13.5147C28.4656 13.6465 28.3916 13.8252 28.3916 14.0116C28.3916 14.1981 28.4656 14.3768 28.5974 14.5086L30.053 15.9642C30.1182 16.0294 30.1957 16.0812 30.281 16.1166C30.3662 16.1519 30.4576 16.1701 30.5499 16.1701C30.6422 16.1701 30.7336 16.1519 30.8189 16.1166C30.9042 16.0812 30.9817 16.0294 31.0469 15.9642ZM18.4086 15.9642C18.5404 16.0959 18.7192 16.17 18.9056 16.17C19.092 16.17 19.2708 16.0959 19.4026 15.9642C19.5344 15.8323 19.6084 15.6536 19.6084 15.4672C19.6084 15.2808 19.5344 15.102 19.4026 14.9702L17.9471 13.5147C17.8152 13.3829 17.6365 13.3088 17.4501 13.3088C17.2637 13.3088 17.0849 13.3829 16.9531 13.5147C16.8213 13.6465 16.7473 13.8252 16.7473 14.0116C16.7473 14.1981 16.8213 14.3768 16.9531 14.5086L18.4086 15.9642Z" fill="#C33130"/>
</svg>
