<svg width="30" height="30" viewBox="0 0 30 30" fill="none" xmlns="http://www.w3.org/2000/svg">
<path d="M29.5425 8.91258C29.4864 8.8989 29.4282 8.8964 29.3712 8.90523C29.3141 8.91406 29.2594 8.93404 29.2101 8.96404C29.1607 8.99403 29.1178 9.03345 29.0837 9.08003C29.0496 9.12662 29.0251 9.17946 29.0114 9.23555C28.8857 9.7518 28.5429 10.168 28.0845 10.3975C27.8512 10.5144 27.7702 10.8079 27.9114 11.0279L27.9153 11.0341C28.555 12.0481 28.0156 13.4022 26.846 13.6912C26.7459 13.4597 26.6052 13.2955 26.4165 13.1467C27.2807 11.7322 27.1572 9.9194 26.1406 8.63315L25.4912 6.68472C25.8356 6.45717 26.1219 6.15198 26.327 5.79368C26.532 5.43539 26.6502 5.03398 26.6719 4.62172C27.1633 5.08716 27.3617 5.80571 27.1286 6.48248C27.0372 6.7479 27.2152 7.03043 27.4944 7.06231C27.9474 7.114 28.3571 7.33365 28.648 7.68094C28.7233 7.76903 28.8302 7.82385 28.9457 7.83349C29.0611 7.84313 29.1757 7.8068 29.2645 7.73241C29.3533 7.65802 29.4091 7.55158 29.4199 7.43624C29.4306 7.32089 29.3954 7.20597 29.3219 7.11646C28.9957 6.72616 28.5632 6.43894 28.077 6.28967C28.2531 5.10052 27.597 3.92738 26.4723 3.46287C26.0005 2.32495 24.8209 1.68727 23.6482 1.86098C23.0163 -0.195753 20.2745 -0.678948 18.9877 1.07761C17.3772 0.395919 15.5089 1.45742 15.3299 3.25325C15.1258 3.34081 14.9462 3.47696 14.8068 3.64982L12.3519 6.688C12.3156 6.7329 12.2885 6.78451 12.2722 6.83987C12.2559 6.89523 12.2506 6.95327 12.2567 7.01067C12.2628 7.06807 12.2801 7.1237 12.3077 7.1744C12.3353 7.2251 12.3727 7.26986 12.4176 7.30614C12.4625 7.34241 12.5141 7.36949 12.5694 7.38582C12.6248 7.40215 12.6828 7.40742 12.7402 7.40132C12.7976 7.39523 12.8533 7.37788 12.9039 7.35028C12.9546 7.32268 12.9994 7.28537 13.0357 7.24047L15.4906 4.20229C15.6853 3.96131 16.0527 3.96248 16.2419 4.20094C17.6621 5.98885 18.4364 8.32014 18.443 10.8029C16.9244 10.899 15.4766 11.2423 14.1495 11.7857C13.8285 10.8675 12.657 10.6058 11.9737 11.2891C11.5061 11.7568 11.4654 12.4906 11.8486 13.0063C11.1627 13.4635 10.5222 13.985 9.93896 14.5668C8.28619 15.9913 6.9929 17.5664 6.09514 19.2486C6.06719 19.2996 6.04963 19.3556 6.04348 19.4134C6.03733 19.4712 6.04271 19.5297 6.0593 19.5854C6.0759 19.6411 6.10338 19.693 6.14016 19.738C6.17694 19.783 6.22229 19.8203 6.27357 19.8477C6.32486 19.875 6.38107 19.892 6.43894 19.8975C6.49681 19.903 6.5552 19.897 6.61073 19.8797C6.66626 19.8625 6.71781 19.8345 6.76242 19.7972C6.80703 19.7599 6.84379 19.7141 6.87059 19.6625C7.71925 18.0724 8.94871 16.5785 10.5248 15.2224C10.5331 15.2153 10.5411 15.2078 10.5489 15.2C14.6034 11.1454 21.534 10.3894 25.8993 13.858C26.1382 14.0477 26.1386 14.4145 25.8985 14.609L11.6124 26.1841C11.0396 25.0402 9.51501 24.8028 8.61865 25.6991C7.83675 26.4811 7.89389 27.7792 8.77601 28.4823L8.15122 28.9885C7.85486 29.2088 7.43033 29.1498 7.20189 28.8558C5.60743 26.8029 5.21027 24.1901 6.08359 21.4986C6.11845 21.3881 6.10822 21.2682 6.05512 21.1651C6.00201 21.0621 5.91035 20.9842 5.80007 20.9484C5.6898 20.9126 5.56986 20.9218 5.46636 20.9741C5.36286 21.0263 5.28419 21.1173 5.24748 21.2273C4.89872 22.302 4.73522 23.3667 4.7511 24.3964C3.48237 24.2171 2.31238 23.7209 1.2677 22.9159C0.963834 22.6817 0.912086 22.2442 1.15324 21.9457L11.825 8.73858C11.8982 8.64791 11.9325 8.53185 11.9202 8.41594C11.9079 8.30002 11.85 8.19374 11.7593 8.12048C11.7144 8.08419 11.6628 8.05711 11.6075 8.04077C11.5521 8.02444 11.4941 8.01916 11.4367 8.02526C11.3793 8.03135 11.3236 8.0487 11.2729 8.0763C11.2222 8.1039 11.1774 8.14121 11.1412 8.18611L0.469387 21.3933C-0.07423 22.066 0.0321374 23.049 0.703981 23.5903L6.53051 29.4227C7.08474 30.1035 8.08195 30.1745 8.69841 29.6765L26.4517 15.2917C26.6784 15.1086 26.8401 14.8576 26.9131 14.5755C28.5723 14.2632 29.5085 12.4929 28.8596 10.9506C29.3624 10.5828 29.7168 10.054 29.8655 9.44365C29.8931 9.33039 29.8746 9.21082 29.814 9.11123C29.7534 9.01163 29.6558 8.94018 29.5425 8.91258ZM12.5952 12.5318C12.4239 12.3605 12.4239 12.0817 12.5952 11.9104C12.8468 11.6586 13.2813 11.7963 13.339 12.1495C13.0897 12.2716 12.8444 12.4015 12.6034 12.5391C12.6008 12.5366 12.5978 12.5343 12.5952 12.5318ZM9.94054 26.0311C10.3982 26.0311 10.7834 26.3404 10.897 26.7637L9.49046 27.9033C8.55753 27.4264 8.91883 26.0311 9.94054 26.0311ZM5.12974 26.7767L3.33052 24.9756C3.81306 25.1261 4.30848 25.2317 4.81047 25.2909C4.87088 25.7949 4.97776 26.2923 5.12974 26.7767ZM24.8772 12.1376C25.7527 10.6023 24.459 8.70477 22.6945 8.99785C22.6713 8.88721 22.6389 8.7787 22.5977 8.67341C22.7029 8.55532 22.8116 8.16865 22.8494 8.01786C25.3162 7.86578 26.9214 10.5294 25.701 12.6303C25.4339 12.4538 25.1591 12.2894 24.8772 12.1376ZM21.9593 11.063C22.0427 10.9597 22.5159 10.6209 22.6842 9.90159C23.789 9.56983 24.6922 10.7961 24.0833 11.7515C23.4072 11.4556 22.6963 11.2254 21.9593 11.063ZM19.3219 10.7761C19.3197 10.2495 19.2846 9.72357 19.2168 9.20132C19.6859 8.80433 19.9464 8.23851 20.6719 8.23851C21.7387 8.23851 22.2515 9.52763 21.5121 10.267L20.9007 10.8785C20.377 10.8116 19.8497 10.7774 19.3219 10.7761ZM17.4679 4.39791C19.8147 3.03143 22.6794 5.18655 21.9891 7.83343C21.7325 7.62004 21.4275 7.47267 21.1009 7.40415C21.3918 5.6524 19.5079 4.33456 17.9585 5.22295C17.8074 4.9407 17.6437 4.66541 17.4679 4.39791ZM24.862 7.57739C24.2775 7.2736 23.6263 7.12092 22.9676 7.13328C22.9798 6.49281 22.8358 5.85901 22.5483 5.28659L24.2922 5.86789L24.862 7.57739ZM20.1971 7.41447C19.4761 7.58319 19.1379 8.05748 19.0319 8.1431C18.8688 7.40538 18.6381 6.69345 18.3436 6.01757C19.3043 5.40075 20.5281 6.31264 20.1971 7.41447ZM16.2254 3.19007C16.4533 1.9657 17.8486 1.35686 18.9066 2.02431C19.126 2.16777 19.4221 2.08824 19.54 1.85359C20.3281 0.281699 22.6779 0.709395 22.8753 2.44327C22.9073 2.72323 23.1905 2.90039 23.4552 2.80908C25.2641 2.18647 26.6518 4.52696 25.1979 5.80501C25.0735 5.52072 25.091 5.20759 24.7788 5.10351C23.9927 4.84161 21.5922 4.04078 21.5546 4.02952C20.2587 2.94018 18.4023 2.79484 16.952 3.68211C16.9447 3.6728 16.9376 3.66324 16.9302 3.65398C16.751 3.4278 16.504 3.26517 16.2254 3.19007Z" fill="white"/>
<path d="M15.3992 8.0605C15.6295 8.0605 15.8387 7.87601 15.8387 7.62096C15.8387 7.34933 15.5903 7.13531 15.313 7.18963C15.0989 7.23423 14.9596 7.41772 14.9596 7.62096C14.9596 7.86488 15.1583 8.0605 15.3992 8.0605ZM3.59911 20.9353C3.40367 20.9719 3.24573 21.1491 3.24573 21.3661C3.24573 21.6087 3.44352 21.8056 3.68526 21.8056C3.89612 21.8056 4.1248 21.6377 4.1248 21.3661C4.1248 21.0871 3.86711 20.88 3.59911 20.9353ZM21.539 16.7147C22.0531 16.2007 22.0531 15.3643 21.539 14.8502C21.025 14.3362 20.1885 14.3362 19.6745 14.8502C19.1605 15.3643 19.1605 16.2007 19.6745 16.7147C20.1884 17.2287 21.025 17.2288 21.539 16.7147ZM20.2961 15.4718C20.4673 15.3005 20.7462 15.3005 20.9174 15.4718C21.0887 15.6431 21.0888 15.9218 20.9174 16.0931C20.7462 16.2644 20.4673 16.2644 20.2961 16.0931C20.1247 15.9218 20.1248 15.6431 20.2961 15.4718ZM14.3977 16.8245C13.834 16.2609 12.917 16.2609 12.3532 16.8245C11.7897 17.3881 11.7897 18.3052 12.3532 18.8688C12.9169 19.4324 13.8339 19.4325 14.3977 18.8688C14.9613 18.3052 14.9613 17.3882 14.3977 16.8245ZM13.7761 18.2473C13.5553 18.4681 13.1959 18.4683 12.9749 18.2473C12.754 18.0263 12.754 17.667 12.9749 17.4461C13.1956 17.2253 13.5553 17.2251 13.7761 17.4461C13.997 17.667 13.997 18.0264 13.7761 18.2473Z" fill="white"/>
<path d="M16.641 14.841C16.8837 14.841 17.0805 14.6442 17.0805 14.4014C17.0805 14.1587 16.8837 13.9619 16.641 13.9619C16.3982 13.9619 16.2014 14.1587 16.2014 14.4014C16.2014 14.6442 16.3982 14.841 16.641 14.841Z" fill="white"/>
<path d="M13.093 22.3705C12.881 22.4146 12.739 22.596 12.739 22.8012C12.739 23.0689 12.9792 23.2852 13.2647 23.2325C13.4764 23.1885 13.6181 23.0072 13.6181 22.8012C13.6181 22.5226 13.3627 22.3171 13.093 22.3705ZM9.02584 21.574C9.27643 21.574 9.46537 21.3676 9.46537 21.1345C9.4654 21.0766 9.454 21.0193 9.43181 20.9658C9.40962 20.9123 9.37708 20.8638 9.33607 20.8229C9.29506 20.7821 9.24638 20.7497 9.19283 20.7277C9.13928 20.7058 9.08191 20.6946 9.02402 20.6948C8.99589 20.6948 8.96764 20.6976 8.93969 20.7032C8.72672 20.7473 8.5863 20.93 8.5863 21.1345C8.5863 21.3797 8.7862 21.574 9.02584 21.574Z" fill="white"/>
</svg>
