<svg width="30" height="30" viewBox="0 0 30 30" fill="none" xmlns="http://www.w3.org/2000/svg">
<path d="M29.5 29H27.153L28.9905 17.0215C29.028 16.7654 28.9519 16.5057 28.7821 16.3105C28.6974 16.2128 28.5926 16.1345 28.4749 16.0809C28.3573 16.0273 28.2294 15.9997 28.1001 16H27.6716C27.6126 16 27.5561 16.009 27.4981 16.0125V14.39C27.4978 13.8993 27.1007 13.5013 26.6101 13.5H25.0001V12.5C25.0001 12.3674 24.9475 12.2402 24.8537 12.1464C24.7599 12.0527 24.6328 12 24.5002 12H22.5V11.89C22.4996 11.6879 22.4305 11.492 22.304 11.3343C22.1775 11.1767 22.0012 11.0668 21.804 11.0225L22.445 5.50002H23C23.1326 5.50002 23.2598 5.44734 23.3536 5.35358C23.4473 5.25981 23.5 5.13264 23.5 5.00004V3.50004C23.5 2.67164 22.8284 2.00004 22 2.00004V1.5C22 0.671602 21.3285 0 20.5 0H9C8.17154 0 7.5 0.671543 7.5 1.5V1.99998C6.6716 1.99998 6 2.67152 6 3.49998V4.99998C6 5.06564 6.01293 5.13065 6.03806 5.19131C6.06319 5.25198 6.10001 5.30709 6.14644 5.35352C6.19287 5.39995 6.24799 5.43678 6.30865 5.4619C6.36931 5.48703 6.43432 5.49996 6.49998 5.49996H7.05498L7.57846 9.99996H6.49998C3.46389 10.0035 1.00354 12.4639 0.999961 15.5V16C0.999961 16.5523 1.44768 17 1.99998 17H2.49996V18.571C1.56322 18.8058 0.932168 19.6816 1.00594 20.6445C1.04268 21.0569 1.20593 21.4479 1.47335 21.7641C1.74078 22.0802 2.09933 22.306 2.49996 22.4105V24H1.99998C1.44768 24 0.999961 24.4477 0.999961 25V26.5C0.999911 26.9661 1.09324 27.4274 1.27444 27.8568C1.45563 28.2862 1.72102 28.6749 2.05494 29H0.49998C0.223828 29 0 29.2239 0 29.5C0 29.7762 0.223828 30 0.49998 30H29.5C29.7761 30 29.9999 29.7762 29.9999 29.5C29.9999 29.2239 29.7762 29 29.5 29ZM25 14.5H26.5V16.292C25.9859 16.5585 25.5844 17.0006 25.3685 17.538C25.2663 17.7897 25.143 18.0324 25 18.2635V14.5ZM22.5 13H24V19.384C23.5546 19.7317 23.0448 19.988 22.5 20.138V13ZM8.50002 1.5C8.50002 1.3674 8.5527 1.24022 8.64646 1.14646C8.74022 1.0527 8.8674 1.00002 9 1.00002H20.5C20.6326 1.00002 20.7598 1.0527 20.8536 1.14646C20.9473 1.24022 21 1.3674 21 1.5V1.99998H8.50002V1.5ZM7.00002 4.5V3.49998C7.00002 3.36738 7.0527 3.24021 7.14646 3.14644C7.24022 3.05268 7.3674 3 7.5 3H22C22.1326 3 22.2598 3.05268 22.3536 3.14644C22.4473 3.24021 22.5 3.36738 22.5 3.49998V4.5H7.00002ZM20 12H21.5V20.303C21.3345 20.316 21.171 20.3336 21 20.3336C20.6646 20.3314 20.3301 20.3004 20 20.241V12ZM19.89 11C19.7434 11.0001 19.5992 11.0364 19.47 11.1057C19.3408 11.1749 19.2307 11.275 19.1495 11.397C18.2075 10.5492 16.9988 10.0573 15.7325 10.0065C15.655 9.99996 15.5775 9.99996 15.5 9.99996H8.58498L8.0615 5.49996H21.4385L20.8 11H19.89ZM1.99998 16V15.5C2.00303 13.016 4.01596 11.0031 6.49998 11H15.5C15.5525 11 15.6045 11 15.676 11.0046C16.6413 11.0419 17.5685 11.3912 18.3185 12.0001H17.39C16.8986 12.0004 16.5003 12.3986 16.5001 12.89V14H14.8901C14.3987 14.0003 14.0003 14.3986 14.0001 14.89V16H1.99998ZM19 13V19.965C18.4282 19.7362 17.9154 19.3812 17.5 18.9265V13H19ZM16.5 15V17.2785C16.3427 16.9902 16.1287 16.7367 15.8709 16.5333C15.6132 16.3298 15.3169 16.1805 15 16.0945V15H16.5ZM13.236 18.5H11.705C11.4407 18.5002 11.1872 18.605 11 18.7915L8.49996 21.2915L6 18.7915C5.81275 18.605 5.55929 18.5002 5.295 18.5H3.49998V17H13.009V17.0285L13.236 18.5ZM13.3905 19.5L13.695 21.5H9.70652L11.7065 19.5H13.3905ZM13.85 22.5L14.374 25.921L14 26.293L12 24.293C11.813 24.106 11.5595 24.0006 11.295 24.0001H3.49998V22.5H13.85ZM2.0035 20.5725C1.99184 20.4293 2.01177 20.2854 2.06188 20.1508C2.11198 20.0161 2.19105 19.8942 2.29348 19.7935C2.38593 19.7002 2.496 19.6262 2.61729 19.5759C2.73858 19.5255 2.86866 19.4997 3 19.5H5.29148L7.29146 21.5H3.08502C2.53975 21.5146 2.07217 21.1136 2.0035 20.5725ZM4.5 28.999C3.12035 28.9973 2.00221 27.8796 1.99998 26.5V25H11.2905L13.6455 27.355C13.7393 27.4487 13.8664 27.5013 13.999 27.5013C14.1316 27.5013 14.2587 27.4487 14.3525 27.355L14.5585 27.1489L14.8425 28.9989L4.5 28.999ZM15.8545 29L14.0174 16.9999L14.3229 17C14.6168 16.998 14.9046 17.0834 15.1497 17.2453C15.3949 17.4073 15.5864 17.6384 15.7 17.9095C15.9197 18.4662 16.228 18.9837 16.613 19.442C16.6307 19.4668 16.6508 19.4897 16.673 19.5105C17.2179 20.1111 17.8875 20.5855 18.6349 20.9003C19.3823 21.2152 20.1895 21.3631 20.9999 21.3335C23.5 21.3335 25.4299 20.0835 26.2999 17.909C26.4133 17.6386 26.6043 17.4079 26.8488 17.2461C27.0933 17.0843 27.3802 16.9987 27.6734 17L27.9819 16.9999L26.1414 29H15.8545Z" fill="black"/>
</svg>
