<svg width="30" height="20" viewBox="0 0 30 20" fill="none" xmlns="http://www.w3.org/2000/svg">
<path d="M29.2359 5.74267H27.7595C28.649 4.31878 28.6485 2.73534 27.6872 1.95089C26.6658 1.11792 24.9773 1.52814 23.7327 2.86888C23.5419 2.45321 23.3091 2.04435 23.0354 1.64743C22.6399 1.07269 21.8788 0.796241 21.2654 1.00419C20.8207 1.15489 20.5591 1.53616 20.5828 1.99923C20.5979 2.29565 20.5916 2.59255 20.5661 2.88868C20.2185 2.26771 19.7568 1.67093 19.19 1.12208C18.6887 0.636338 17.8878 0.515166 17.3269 0.840127C16.921 1.07538 16.7398 1.5003 16.854 1.94919C16.9426 2.29852 17.0019 2.65461 17.0315 3.01378C16.8712 2.96935 16.7078 2.93695 16.5426 2.91687C16.4818 2.42793 16.313 1.95863 16.0486 1.5429C15.9855 1.4456 15.8865 1.37718 15.7732 1.35253C15.6599 1.32789 15.5415 1.34902 15.4437 1.41133C15.3459 1.47364 15.2767 1.57207 15.2512 1.68517C15.2256 1.79828 15.2458 1.91689 15.3074 2.01517C15.4831 2.29181 15.6014 2.60096 15.6552 2.92425C15.1544 2.99402 14.6762 3.17755 14.2573 3.46077C13.8384 3.74399 13.49 4.11937 13.2387 4.55814C12.9873 4.11923 12.6387 3.74376 12.2196 3.46052C11.8005 3.17728 11.3221 2.99381 10.8212 2.92419C11.0248 1.50077 12.5559 0.542061 13.9495 0.983858C14.061 1.01757 14.1814 1.0056 14.2842 0.950588C14.3869 0.895575 14.4636 0.802017 14.4974 0.690479C14.5311 0.578917 14.5192 0.458528 14.4641 0.355781C14.4091 0.253035 14.3156 0.176344 14.204 0.142569C13.0613 -0.209404 11.7652 0.102315 10.9148 0.945244C10.3681 1.47804 10.0266 2.16892 9.93422 2.91687C9.3891 2.9827 8.86891 3.18303 8.42046 3.49985C7.97201 3.81667 7.60937 4.24002 7.36518 4.73181C7.19643 4.18015 6.89971 3.62632 6.48984 3.12382C5.23131 1.58222 3.3965 1.06706 2.31258 1.95089C1.98639 2.21714 1.75869 2.59401 1.65404 3.04079C1.62749 3.15428 1.6471 3.27366 1.70856 3.3727C1.77001 3.47173 1.86828 3.5423 1.98176 3.5689C2.21789 3.62398 2.45449 3.47749 2.50986 3.24118C2.57068 2.98132 2.69133 2.7763 2.86816 2.63198C3.54686 2.07874 4.89357 2.55839 5.80887 3.67952C6.3392 4.32968 6.64377 5.09216 6.64717 5.74261H6.03018L4.89023 4.41523C4.81426 4.32697 4.70637 4.27248 4.59025 4.26372C4.47413 4.25496 4.35928 4.29265 4.27093 4.3685C4.18257 4.44436 4.12794 4.55218 4.11902 4.66828C4.11011 4.78439 4.14764 4.89929 4.22338 4.98774L4.8716 5.74267H3.32168C3.31611 5.73593 3.31025 5.72942 3.30475 5.72269C3.10523 5.47812 2.93607 5.2169 2.80213 4.94626C2.77653 4.89454 2.74099 4.84836 2.69755 4.81037C2.6541 4.77238 2.6036 4.74332 2.54892 4.72485C2.4385 4.68754 2.31778 4.69563 2.21332 4.74733C2.10886 4.79904 2.02922 4.89012 1.99191 5.00054C1.95461 5.11096 1.96269 5.23168 2.01439 5.33614C2.0835 5.4752 2.15923 5.61087 2.24133 5.74267H0.764063C0.342773 5.74267 0 6.0855 0 6.50679V6.67747C0 10.0431 1.31068 13.2073 3.69053 15.5873C6.07043 17.9671 9.23467 19.2778 12.6004 19.2778H17.3996C20.6246 19.2778 23.6929 18.0604 26.039 15.8498C26.1214 15.7693 26.1689 15.6596 26.1713 15.5445C26.1736 15.4293 26.1307 15.3178 26.0517 15.234C25.9727 15.1501 25.8639 15.1006 25.7488 15.0962C25.6337 15.0917 25.5215 15.1326 25.4362 15.2101C23.2538 17.2665 20.3996 18.3989 17.3995 18.3989H12.6004C6.13711 18.3989 0.878906 13.1407 0.878906 6.67747V6.62157H29.1211V6.67747C29.1211 9.25085 28.3031 11.693 26.7555 13.7398C26.6852 13.8327 26.6547 13.9498 26.6707 14.0653C26.6868 14.1807 26.748 14.2851 26.841 14.3554C26.9339 14.4257 27.051 14.4561 27.1665 14.4401C27.2819 14.4241 27.3863 14.3628 27.4566 14.2699C29.1204 12.0692 30 9.44374 30 6.67747V6.50679C30 6.0855 29.6572 5.74267 29.2359 5.74267ZM27.1317 2.63192C27.8103 3.18569 27.6104 4.60108 26.6955 5.72245C26.6899 5.72925 26.684 5.73587 26.6784 5.74267H25.1284L25.7766 4.98774C25.8524 4.89929 25.8899 4.78439 25.881 4.66828C25.8721 4.55218 25.8174 4.44436 25.7291 4.3685C25.6407 4.29265 25.5259 4.25496 25.4098 4.26372C25.2936 4.27248 25.1857 4.32697 25.1098 4.41523L23.9698 5.74267H23.3528C23.3562 5.09222 23.6608 4.3298 24.191 3.67976C25.1065 2.55839 26.4533 2.07874 27.1317 2.63192ZM21.4605 1.95452C21.4578 1.90067 21.4605 1.8661 21.5476 1.83663C21.7349 1.77312 22.1046 1.84513 22.3116 2.14606C22.6536 2.64194 22.9234 3.15604 23.1168 3.67612C22.7016 4.34937 22.4765 5.07405 22.4744 5.74267H21.3246C21.3349 5.30023 21.2838 4.85263 21.1741 4.40755C21.4059 3.602 21.5026 2.77683 21.4605 1.95452ZM17.7058 1.73257C17.6922 1.67913 17.6883 1.64667 17.7676 1.60073C17.9391 1.50147 18.3161 1.49925 18.5786 1.75349C19.8171 2.95278 20.4844 4.38874 20.4455 5.74267H19.4251C19.3586 5.27006 19.1908 4.81742 18.933 4.41575C18.6753 4.01409 18.3337 3.67291 17.9318 3.41562C17.9204 2.84456 17.8448 2.27931 17.7058 1.73257ZM16.1291 3.76981C17.3235 3.76981 18.3129 4.60935 18.5339 5.74267H13.7249C13.9458 4.60941 14.935 3.76981 16.1291 3.76981ZM10.3482 3.76981C11.5424 3.76981 12.5314 4.60935 12.7525 5.74267H7.94344C8.16445 4.60941 9.15381 3.76981 10.3482 3.76981Z" fill="black"/>
</svg>
